<svg xmlns="http://www.w3.org/2000/svg" viewBox="0 0 1920 1080">
  <path fill="#4dbab5" d="M0 0h1920v1080H0z"/>
  <path fill="#7f4c98" d="M0 317c5.93-5.05 12-10 17.77-15.18a908.65 908.65 0 0 1 305.9-180.16A865.22 865.22 0 0 1 472 83.71c29.21-4.68 58.71-8 88.2-10.35 27.19-2.14 54.57-3.32 81.82-2.79 57.77 1.12 114.52 9 168.3 31.66 20.22 8.53 39.34 19 54.49 35.43 8.27 9 14.39 19 16.13 31.48 2.33 16.67-3.94 29.31-17.43 38.64-13.24 9.22-28.51 13.48-44.03 16.82-24.89 5.36-50 9.84-74.85 15.28-18.77 4.1-37 10.07-53.16 20.93-12.76 8.57-21.72 20-26 34.91-2 7.08-1.7 7.5 5.53 8.47 29.78 4 59.09 10.05 87.4 20.3 20.17 7.29 38.94 17 55.65 30.79 42.2 34.9 33.51 101.86-12.19 127.18-18.59 10.29-38.54 15.38-59.47 17.36-28 2.65-55.85-.28-83.72-2.75-20.22-1.78-40.49-3-60.73-4.45a333.65 333.65 0 0 0-88 5.14q-74.94 14.58-125.48 72c-.83.95-1.45 2.08-2.52 3.63 7.71 2 15 3.64 22 5.86 22.68 7.15 42.79 18.51 58.18 37.07 27 32.59 28.49 89.59-18.07 120.19-19.85 13-41.41 22.2-63.91 29.08-35.19 10.76-70.62 20.71-105.9 31.18-41.57 12.33-82.44 26.52-120.93 46.84-53 28-97 65.83-126.25 118.84-9.52 17.26-16.33 36-24.33 54.12C1.7 1019 .92 1021.51 0 1024Zm1920 647c-8.72 5.81-17.22 12-26.21 17.34-24.68 14.7-51.52 23.11-80 26.56-35.33 4.28-70 1.32-103.2-11.53-64.76-25.06-103.83-72.14-116.15-140.54-6.44-35.77-1.78-71.12 8.67-105.6 8.59-28.35 18.37-56.35 27.61-84.51 8-24.4 15.09-49 18.26-74.59 4.27-34.4-.7-67.42-15.65-98.78-3.37-7.05-7.33-13.82-11-20.73-.59-1.12-1.09-2.29-2-4.16 8.62.7 16.53 1.11 24.38 2a576.62 576.62 0 0 1 84.35 15.73c59.41 16.07 114.13 41.61 161.91 80.9 8.48 7 16.28 14.77 24.42 22.16 1.46 1.32 3.06 2.49 4.59 3.73ZM253 1080c1.78-18.06 3.54-36.13 9.51-53.43 3.94-11.43 9.13-22.12 18.1-30.67 13.37-12.75 32-16.2 47.73-6.43s30.51 21.36 45.5 32.41C400 1041.15 426 1060.62 452 1080Zm751.88-940.7c2.64.23 4 .22 5.41.49 67.56 13.45 132.14 35.47 193.11 67.69a611.11 611.11 0 0 1 133.6 95c48.24 45.29 87.55 97.19 117.12 156.38a495.48 495.48 0 0 1 48.37 156.3 420.53 420.53 0 0 1 3 86.71c-3.25 44.27-13.52 86.88-33.29 126.77-31.2 63.13-78.2 109.71-145.11 134.45a255.76 255.76 0 0 1-70.61 14.91c-42.57 3.08-84.2-1.29-124.46-15.69-63.67-22.78-110.83-64.38-140.84-125.15-15.59-31.56-24-65.1-28.13-100-6-51.28.77-101.12 17-149.66 13.84-41.36 29.27-82.2 44.07-123.24 13.74-38.09 26.74-76.37 33.64-116.46 9.46-55 5.21-108.34-20.76-158.52-8-15.45-18.59-29.55-28-44.25-1-1.64-2.26-3.15-4.12-5.73Zm159.36 405.07c.06 26.81 7.4 46.84 19.72 60.31 32 35 88.15 32.21 116.65-6.09 18-24.12 23.58-51.61 18.69-81-7.94-47.6-30.17-87.55-67-118.85-13-11-28-18.8-45.7-19.08-9.84-.16-15.14 3.34-17.6 12.86a92.52 92.52 0 0 0-3 21.17 367.23 367.23 0 0 1-12.82 90.31c-4.18 15.34-6.92 31.09-8.94 40.37ZM592.12 667.33c6.34 0 11.44-.22 16.52 0 49.76 2.57 97.69 12.9 142.56 35.09 45.71 22.6 84.06 53.86 111 97.78 16.74 27.25 26.93 56.67 28.86 88.87 2.27 37.72-6.91 72.15-29.6 102.37-24.7 32.91-58.12 51-99 55.43-31.86 3.43-61.92-2.06-89-19.5-35.35-22.76-55.77-55.62-62.14-97-4.46-29 .63-57.35 6.34-85.66 4.18-20.71 8.72-41.39 11.89-62.26 6.37-42-4.12-79.25-33.65-110.52-1.07-1.14-2-2.42-3.78-4.6Z"/>
</svg>
